<svg xmlns="http://www.w3.org/2000/svg" viewBox="0 0 44 24"><path d="M36,2v1h-1v1h-1v1h-1v1h-1v1h-2v1h-2v1H16V8h-2V7h-2V6h-1V5h-1V4H9V3H8V2H5v22h34V2H36z"/><g fill="red"><path d="M23 12v-1h1v-1h-8V9h-2V8h-2V7h-1V6h-1V5H9V4H8V3H6v11h15v-1h1v-1h1z"/><path d="M36,3v1h-1v1h-1v1h-1v1h-1v1h-2v1h-2v1h-3v1h-1v1h-1v1h-1v1h16V3H36z"/></g><path d="M6,15v3h32v-3H6z" fill="#fff"/><g fill="red"><path d="M16,19v1h-1v1h-1v1h24v-3H16z"/><path d="M15 20v-1H6v3h7v-1h1v-1h1z"/></g><path d="M40,2v1h1v1h1v1h2v10h-2v-1h-2v-1h-1.5V2H40z"/><path d="M40 3v9h-1V3h1z" fill="red"/><path d="M42 5v8h-1V5h1z" fill="#fff"/><path d="M4,2v1H3v1H2v1H0v10h2v-1h2v-1h1.5V2H4z"/><path d="M4,3v9h1V3H4z" fill="red"/><path d="M2,5v8h1V5H2z" fill="#fff"/><path d="M4,2v1H3v1H2v1H0v10h2v-1h2v-1h1.5V2H4z"/><path d="M4,3v9h1V3H4z" fill="red"/><path d="M2,5v8h1V5H2z" fill="#fff"/></svg>